<svg version="1.1" id="Layer_1" xmlns="http://www.w3.org/2000/svg" xmlns:xlink="http://www.w3.org/1999/xlink" x="0px" y="0px"
	 width="100%" viewBox="0 0 285 253" enable-background="new 0 0 285 253" xml:space="preserve">
<path fill="#FEFEFD" opacity="1.000000" stroke="none" 
	d="
M179.000000,254.000000 
	C119.333344,254.000000 60.166679,254.000000 1.000016,254.000000 
	C1.000011,169.666687 1.000011,85.333366 1.000005,1.000039 
	C95.999969,1.000026 190.999939,1.000026 285.999939,1.000013 
	C285.999939,85.333290 285.999939,169.666580 285.999969,253.999939 
	C250.500000,254.000000 215.000000,254.000000 179.000000,254.000000 
M162.999313,87.989449 
	C162.999313,87.989449 162.930405,87.963806 163.451263,87.690521 
	C163.566742,87.329430 163.682220,86.968338 163.688843,86.332893 
	C163.688843,86.332893 163.785324,86.053940 164.317108,85.749474 
	C163.829773,85.204033 163.342438,84.658585 162.929108,84.015129 
	C162.929108,84.015129 162.903610,84.135254 162.799164,83.617134 
	C162.522598,83.415489 162.246048,83.213852 161.462753,82.699051 
	C161.299469,82.135017 161.136185,81.570984 161.559479,80.435402 
	C162.352951,75.600227 163.146408,70.765053 163.998550,65.993233 
	C163.998550,65.993233 163.922348,65.952728 164.423126,65.801086 
	C164.604187,65.514122 164.785248,65.227150 164.994690,65.000320 
	C164.994690,65.000320 164.939865,64.962639 165.420532,64.854240 
	C165.729843,64.695435 165.938293,64.450714 166.048248,64.037735 
	C166.048248,64.037735 166.122742,64.072929 166.946457,64.059349 
	C171.297028,63.713490 175.647598,63.367626 180.644897,63.078621 
	C181.784576,64.010834 182.924240,64.943047 184.021484,66.688515 
	C184.687546,70.099190 185.334106,73.513840 186.029205,76.918587 
	C186.310089,78.294357 186.697006,79.648491 187.011581,81.603729 
	C186.718063,82.090096 186.424545,82.576462 185.445801,83.091331 
	C183.280640,84.574669 181.755386,86.096230 185.061050,87.950317 
	C185.061050,87.950317 185.106018,87.856537 185.183685,88.368622 
	C185.441910,88.583153 185.700134,88.797691 186.531158,89.416420 
	C188.020218,90.015106 189.509262,90.613792 191.394257,91.802147 
	C194.644836,92.478897 197.895401,93.155647 201.074982,93.788864 
	C201.074982,93.788864 201.158249,93.791672 201.183487,94.586395 
	C203.160400,95.016853 205.137329,95.447304 207.008820,95.864410 
	C207.008820,95.864410 207.113632,95.844604 207.156433,96.623047 
	C208.816498,97.034241 210.476547,97.445442 211.995926,97.865486 
	C211.995926,97.865486 212.130463,97.822708 212.181915,98.628090 
	C216.073868,100.784622 219.777267,101.128181 223.695908,97.275078 
	C224.137726,97.274544 224.579529,97.274017 225.451157,97.683952 
	C226.294250,97.449783 227.137329,97.215607 228.283966,96.722771 
	C228.540070,96.593628 228.694855,96.388184 229.319901,95.759697 
	C227.541855,94.841698 225.763809,93.923698 223.400681,92.957558 
	C222.930115,92.645470 222.459534,92.333382 221.880997,91.294884 
	C220.574783,90.877121 219.268570,90.459366 217.999390,89.999802 
	C217.999390,89.999802 217.971008,90.047737 217.656906,89.504646 
	C217.069717,89.354851 216.482544,89.205055 215.444290,89.009811 
	C215.444290,89.009811 215.043777,88.797401 214.986282,88.010712 
	C212.838303,87.420174 210.690308,86.829628 208.007248,86.218597 
	C207.684738,86.070976 207.362213,85.923363 206.882980,85.100525 
	C203.712982,82.353943 197.428131,83.324585 197.117798,76.264542 
	C197.156891,75.502800 197.195999,74.741066 197.713898,73.373970 
	C198.446732,65.014816 197.107086,62.011150 191.898666,60.044167 
	C191.898666,60.044167 191.876572,60.179882 191.738235,59.630703 
	C191.421356,59.452152 191.104462,59.273598 190.182114,58.810295 
	C188.774414,57.677544 187.366699,56.544788 185.740784,55.162403 
	C185.557297,55.021191 185.349777,54.951981 184.527359,54.864731 
	C184.017715,54.560326 183.508072,54.255917 182.650497,53.440762 
	C182.065231,53.311768 181.479980,53.182774 180.423416,53.028160 
	C180.423416,53.028160 179.991409,52.838043 179.469406,52.332027 
	C175.916260,51.041904 172.367020,49.837280 168.411072,52.966072 
	C168.002625,53.009907 167.594193,53.053745 166.545990,53.031620 
	C166.033508,53.350159 165.521042,53.668694 164.753464,54.209785 
	C164.753464,54.209785 164.415497,54.229427 163.638962,54.091240 
	C162.768936,54.747509 161.898911,55.403782 160.723053,56.595081 
	C159.581070,57.447662 158.439087,58.300243 156.536804,59.122982 
	C155.716339,60.442566 154.895874,61.762146 154.018524,62.991798 
	C154.018524,62.991798 154.091949,63.070015 153.381638,63.106781 
	C152.612976,65.411217 151.844330,67.715660 151.086624,70.846085 
	C150.950470,72.213547 150.814301,73.581001 150.054886,75.128090 
	C149.328491,78.154213 150.756409,81.929634 146.644577,84.113243 
	C146.644577,84.113243 146.229294,84.126366 145.423218,84.023087 
	C143.938644,84.619522 142.454071,85.215965 140.356369,86.146729 
	C139.241455,86.439247 138.126526,86.731766 136.692139,86.556435 
	C136.122131,87.007843 135.552124,87.459244 134.720551,88.153915 
	C134.720551,88.153915 134.365555,88.193489 133.557922,88.070152 
	C132.375885,88.722702 131.193832,89.375252 129.662628,90.497551 
	C129.106628,90.653221 128.550629,90.808899 127.647308,90.511002 
	C127.104362,91.021187 126.561417,91.531372 125.661713,92.505112 
	C125.117188,92.700836 124.572655,92.896561 123.695747,92.599976 
	C123.159615,93.105423 122.623474,93.610863 122.000061,94.039291 
	C122.000061,94.039291 122.108406,94.081818 121.634224,94.138962 
	C121.321220,94.269295 121.106857,94.493797 120.671158,95.058372 
	C120.671158,95.058372 120.272743,95.122536 119.716248,95.195061 
	C119.484451,95.473991 119.252655,95.752914 119.000893,95.999290 
	C119.000893,95.999290 119.027992,96.027245 118.256790,95.983849 
	C116.859886,97.018501 115.462975,98.053162 114.001587,99.014458 
	C114.001587,99.014458 114.087502,99.060852 113.595268,99.169144 
	C113.387070,99.422821 113.178871,99.676498 112.979958,99.999664 
	C112.979958,99.999664 112.920593,99.962387 112.521790,100.074600 
	C112.262985,100.209160 112.088051,100.414993 111.673813,101.003616 
	C111.673813,101.003616 111.241913,101.125847 110.458084,101.040909 
	C109.352966,102.119789 108.247841,103.198677 106.757576,104.810402 
	C82.995163,124.448486 68.193336,149.339172 62.765152,179.748291 
	C62.507923,181.189331 62.006439,182.654190 61.305126,183.936447 
	C58.745304,188.616638 56.052433,193.224060 52.809921,198.910782 
	C46.008862,198.910782 37.715965,198.796494 29.427763,198.944809 
	C22.008215,199.077576 14.987446,204.347519 12.739554,211.129456 
	C10.398875,218.191376 12.471431,224.589035 18.605406,229.774094 
	C19.815775,230.797241 20.933527,232.123764 21.618263,233.540329 
	C24.160612,238.799835 28.307423,241.050232 34.045658,241.012604 
	C46.201679,240.932861 58.358585,240.987549 70.515129,240.987305 
	C78.647316,240.987122 86.779503,240.987274 95.427307,240.987274 
	C95.574265,237.885300 95.701942,235.190292 95.855515,231.948730 
	C93.408096,231.948730 91.613014,231.948441 89.817924,231.948792 
	C71.666428,231.952408 53.513916,232.041718 35.365059,231.824722 
	C33.589733,231.803513 30.374601,229.939819 30.343040,228.857956 
	C30.241165,225.365784 27.958591,224.846786 25.779196,223.295227 
	C23.617687,221.756393 21.118494,218.719803 21.237850,216.471237 
	C21.373144,213.922348 23.885561,211.092636 26.072758,209.206268 
	C27.474083,207.997696 30.152763,207.961594 32.264889,207.937790 
	C42.921001,207.817673 53.579163,207.890518 64.236458,207.853592 
	C66.133423,207.847015 68.029694,207.642105 70.643242,207.485947 
	C69.684006,206.198975 69.383347,205.614960 68.925278,205.208221 
	C62.487495,199.491837 62.537884,195.443787 68.933411,189.774033 
	C69.919861,188.899490 70.716492,187.382324 70.879929,186.072403 
	C73.214584,167.359970 79.923882,150.348312 90.809853,135.021790 
	C101.983253,119.290596 115.794441,106.594208 134.265579,98.852890 
	C134.510773,98.629875 134.755951,98.406860 135.546249,97.811630 
	C136.363907,97.539665 137.181580,97.267693 138.323959,97.448967 
	C138.889557,97.005165 139.455154,96.561371 140.359161,95.893120 
	C140.359161,95.893120 140.764633,95.871346 141.624725,95.978546 
	C147.414993,94.353958 153.205261,92.729370 159.559784,90.829788 
	C160.401947,90.228867 161.244110,89.627945 162.530487,88.802727 
	C162.806671,88.577675 162.948166,88.287033 162.999313,87.989449 
M93.934044,20.920845 
	C93.934044,20.920845 93.808395,20.930916 93.403770,21.163094 
	C93.152321,21.376509 93.013725,21.647627 93.003067,21.997828 
	C93.003067,21.997828 92.978500,21.991837 92.483521,22.332245 
	C92.406525,22.714306 92.329521,23.096365 92.268578,24.001486 
	C92.159004,24.331333 92.049438,24.661182 91.262772,25.114729 
	C89.433464,26.763239 89.275848,28.127991 92.164536,29.664139 
	C92.448486,30.773964 92.732437,31.883787 92.554214,33.322807 
	C93.013092,33.894863 93.471970,34.466915 94.004654,35.025826 
	C94.004654,35.025826 93.948120,35.075085 93.939613,35.817387 
	C94.634323,36.875168 95.329025,37.932953 96.463600,39.330696 
	C96.661728,39.843536 96.859856,40.356373 97.138481,41.361717 
	C97.274712,41.684216 97.502274,41.917706 97.930984,42.089134 
	C97.930984,42.089134 97.885643,42.192730 97.915543,42.948723 
	C98.821045,44.325790 99.726540,45.702858 100.844803,47.696060 
	C100.913536,48.125126 100.982277,48.554195 100.562714,49.351524 
	C101.369148,50.236908 102.175591,51.122292 103.000916,51.999531 
	C103.000916,51.999531 102.991264,52.017838 102.967392,52.746948 
	C103.576614,53.835167 104.185829,54.923382 104.906776,56.741787 
	C104.970428,57.477470 105.034088,58.213158 104.488480,59.499310 
	C104.319687,62.326023 104.150894,65.152733 103.998924,68.001396 
	C103.998924,68.001396 103.974518,67.985855 103.284912,68.105072 
	C102.066132,70.021637 100.847351,71.938194 99.628578,73.854759 
	C100.039864,74.137222 100.451157,74.419685 100.862442,74.702148 
	C103.846184,73.403961 107.302307,72.588623 107.104813,67.315163 
	C107.210037,66.876900 107.315254,66.438637 107.730003,65.716515 
	C107.907845,65.481514 107.987122,65.216949 108.025841,64.449806 
	C108.025841,64.449806 108.187645,64.001564 108.683853,63.473927 
	C108.817902,62.020336 108.951942,60.566746 109.812317,59.039505 
	C110.541817,59.016220 111.271309,58.992939 112.158119,59.393566 
	C112.304916,59.668884 112.517883,59.876232 112.917076,60.502171 
	C112.944450,60.666962 112.971825,60.831757 113.091034,61.414192 
	C113.214302,61.686703 113.412025,61.884956 113.861237,62.524292 
	C113.897110,62.702343 113.932983,62.880398 113.958771,63.864262 
	C114.609673,65.591377 115.260574,67.318489 115.993134,69.035652 
	C115.993134,69.035652 115.940590,69.098946 115.955757,69.641792 
	C116.220177,70.094086 116.484596,70.546387 116.938950,71.632584 
	C117.018242,72.066116 117.097534,72.499641 116.578201,73.391090 
	C117.599159,80.748276 116.450905,87.571899 110.602524,93.374405 
	C116.800156,94.087769 122.005646,88.732605 120.919807,83.308136 
	C121.011177,82.886688 121.102554,82.465240 121.696220,81.525162 
	C123.656990,77.360794 122.845963,73.544571 120.025673,69.373146 
	C119.717949,68.846474 119.410225,68.319801 118.806862,67.121231 
	C117.331825,62.909378 115.733192,58.735878 114.411507,54.476440 
	C112.554749,48.492649 114.269371,43.328686 118.462151,41.600452 
	C123.680710,39.449402 128.648438,41.118519 131.192123,46.756592 
	C129.986679,54.873230 124.874352,47.262810 122.093864,48.742924 
	C123.289337,49.664745 125.187271,50.401100 125.278183,51.316849 
	C125.849632,57.072746 128.862259,54.367184 131.189301,53.087673 
	C134.889587,51.053101 135.538666,47.203518 132.945892,41.898449 
	C126.232338,35.077076 115.942940,36.054043 110.422478,44.389362 
	C110.383926,44.766571 110.345367,45.143776 110.368034,45.793343 
	C110.368034,45.793343 110.191628,46.009705 109.617493,46.280228 
	C109.413864,46.857651 109.210236,47.435074 108.258415,48.018486 
	C107.510384,48.004822 106.762344,47.991158 105.928543,47.278320 
	C104.404648,45.162178 102.880760,43.046036 101.143501,40.314728 
	C101.052956,39.891121 100.962402,39.467514 101.385902,38.693996 
	C100.816620,38.184296 100.247330,37.674599 99.223312,36.632999 
	C98.713013,35.590042 98.158798,34.565990 97.700272,33.500748 
	C96.021133,29.599756 94.469322,25.691738 98.253929,22.046738 
	C101.995857,18.442848 105.570786,18.132902 111.593170,21.521891 
	C112.900093,24.153711 113.955368,26.726929 109.596878,27.772362 
	C109.566666,26.329288 109.946320,24.665899 109.337738,23.533720 
	C109.021347,22.945126 106.504097,22.750164 105.791649,23.346247 
	C104.683250,24.273602 103.673080,26.024754 103.668327,27.430294 
	C103.654892,31.399857 107.602547,33.469093 112.287231,31.458796 
	C117.226448,27.756739 117.491417,23.188280 113.000305,18.999924 
	C113.000305,18.999924 113.005806,18.990873 112.854370,18.625053 
	C112.719833,18.414038 112.585297,18.203020 112.450752,17.992004 
	C112.390167,18.209654 112.329575,18.427301 111.718231,18.059149 
	C105.573036,14.540660 100.065208,16.665228 94.343964,20.154943 
	C94.130920,20.320848 93.989952,20.534355 93.934044,20.920845 
M231.552048,230.962372 
	C231.481613,230.270752 231.411179,229.579117 231.220291,227.973160 
	C231.294724,219.808548 231.369156,211.643921 232.301910,203.462967 
	C237.429016,203.455460 242.556107,203.447952 247.857132,204.150238 
	C247.987289,205.114670 248.117447,206.079117 248.057144,207.499420 
	C248.057144,207.499420 248.242889,207.957214 248.137115,208.893692 
	C248.419510,216.276398 248.701904,223.659088 249.108368,231.415680 
	C249.421356,231.353119 249.734329,231.290543 250.865891,231.148712 
	C252.234421,231.178696 253.602936,231.208664 255.490982,231.698959 
	C256.995209,231.463898 258.499451,231.228836 260.635498,231.093689 
	C261.041077,231.223282 261.446655,231.352890 262.122742,232.089096 
	C263.789612,231.848160 265.456482,231.607224 267.734497,231.177826 
	C268.156464,231.120926 268.578430,231.064026 269.392914,231.473694 
	C270.590118,230.642380 271.787323,229.811081 273.365173,228.501724 
	C274.273041,227.681671 275.180939,226.861618 276.796967,225.917984 
	C277.744293,224.049301 279.475067,222.191818 279.501953,220.309982 
	C279.612671,212.566742 279.346008,204.807327 278.861847,197.076172 
	C278.772888,195.655762 277.029114,194.338989 275.502106,192.594482 
	C272.811066,190.709595 270.120026,188.824707 267.411865,186.011795 
	C267.411865,166.600052 267.411865,147.188324 267.411865,127.592377 
	C262.649994,127.592377 258.479370,127.592377 253.752884,127.592377 
	C253.752884,132.188293 253.752884,136.338654 253.752884,140.916519 
	C244.977188,133.669601 236.102173,136.199890 235.380722,146.225800 
	C234.536621,157.955933 234.785477,169.824142 235.450653,181.582092 
	C235.879791,189.167938 239.214584,191.398132 247.190125,192.436386 
	C247.123810,194.430511 247.057495,196.424652 246.061737,198.390869 
	C241.171509,198.395569 236.281265,198.400269 231.214874,197.461182 
	C231.166245,194.606445 231.117630,191.751724 231.412750,188.555923 
	C230.941238,188.106201 230.469711,187.656494 229.309219,187.096527 
	C228.844116,187.101959 228.378998,187.107391 227.854294,186.492111 
	C227.823181,186.084885 227.792053,185.677658 228.246796,184.626068 
	C228.893173,181.738281 229.996231,178.866379 230.097244,175.959641 
	C230.362732,168.320343 230.332748,160.662720 230.160721,153.018250 
	C229.927567,142.657394 224.021454,136.858994 213.988953,136.815659 
	C203.922928,136.772186 197.943832,142.528229 197.698502,152.848160 
	C197.512833,160.658417 197.449753,168.485748 197.775925,176.286942 
	C197.903122,179.329193 199.245438,182.320618 199.918869,185.197754 
	C199.918869,185.197754 200.008453,185.265564 200.264069,185.777237 
	C200.407486,185.902832 200.550919,186.028442 200.781372,186.734192 
	C200.888474,186.897781 200.995560,187.061386 201.030807,188.164017 
	C200.952286,191.461899 200.873764,194.759781 200.033249,198.044922 
	C194.801422,198.094879 189.569580,198.144836 184.042648,197.489258 
	C183.309418,195.389114 182.576187,193.288971 182.587006,191.065918 
	C189.727219,189.054901 192.736084,183.906326 192.909470,176.926758 
	C193.103561,169.113815 193.068146,161.291962 192.975143,153.475876 
	C192.849213,142.890900 186.895218,136.809158 176.746872,136.694168 
	C166.760651,136.581039 160.592682,142.688904 160.248886,153.289490 
	C160.060272,159.105164 160.199402,164.931442 159.303833,170.930649 
	C154.859177,170.327179 153.828384,172.388443 154.000183,176.594986 
	C154.294205,183.794037 153.908096,191.020844 152.909973,198.185471 
	C146.119080,198.202774 139.323441,198.380615 132.539032,198.179245 
	C128.230209,198.051361 127.311317,199.672745 128.886292,203.759903 
	C137.281113,203.759903 145.541565,203.759903 154.031982,204.703857 
	C154.069656,212.188232 154.230591,219.675018 154.085205,227.155838 
	C154.025848,230.209244 155.061310,231.436630 158.092728,231.179214 
	C159.847061,231.030258 161.624405,231.152145 164.144806,231.152145 
	C164.144806,221.541229 164.144806,212.608566 165.025162,203.712555 
	C168.284027,203.688614 171.542892,203.664673 174.985947,204.608459 
	C174.985947,213.295776 174.985947,221.983109 174.985947,231.005249 
	C178.204544,231.005249 180.642960,231.005249 183.643448,231.058365 
	C183.852844,230.366013 184.062225,229.673660 184.317017,228.194885 
	C184.312119,227.144974 184.307236,226.095062 184.584427,224.840775 
	C184.615295,224.729111 184.700500,224.595612 184.666153,224.510162 
	C184.585556,224.309708 184.447769,224.132233 184.369171,223.017380 
	C184.629929,216.531036 184.890701,210.044708 186.070679,203.532394 
	C189.227646,203.495651 192.384598,203.458893 195.504669,203.480499 
	C195.504669,203.480499 195.463867,203.422577 196.356339,203.576721 
	C196.653076,203.632233 196.949829,203.687744 197.720932,203.969620 
	C198.744232,204.327454 199.767517,204.685287 200.904709,205.967133 
	C201.147781,211.800079 201.390854,217.633041 201.319443,224.144577 
	C201.892151,224.755127 202.464859,225.365677 203.481659,226.390091 
	C204.317993,227.264740 205.154327,228.139389 206.081223,229.715759 
	C206.850479,230.026581 207.619751,230.337387 209.089996,230.777618 
	C210.018661,230.975113 210.947342,231.172607 212.091034,231.965012 
	C213.440125,231.786514 214.789215,231.608002 216.837051,231.231628 
	C217.558426,231.155823 218.279800,231.080002 219.530121,231.545822 
	C221.598587,232.006393 223.679962,232.870575 225.731613,232.805008 
	C227.501633,232.748444 229.237839,231.633774 231.000000,231.000000 
	C231.000000,231.000000 230.986969,230.989151 231.552048,230.962372 
M131.097870,142.504517 
	C131.097870,158.576828 131.097870,174.649124 131.097870,190.736694 
	C135.765472,190.736694 139.791611,190.736694 144.311829,190.736694 
	C144.311829,181.068787 144.311829,171.839706 144.311829,161.989594 
	C148.517166,161.989594 152.226547,161.989594 155.706116,161.989594 
	C155.706116,157.629929 155.706116,153.918854 155.706116,150.264725 
	C143.101837,149.159729 143.101837,149.159729 144.754913,139.664719 
	C148.619797,139.664719 152.645645,139.664719 156.628647,139.664719 
	C156.628647,135.148590 156.628647,131.391251 156.628647,127.414963 
	C148.117371,127.414963 139.899628,127.414963 131.097931,127.414963 
	C131.097931,132.290604 131.097931,136.898712 131.097870,142.504517 
z"/>
<path fill="#F79D13" opacity="1.000000" stroke="none" 
	d="
M140.764633,95.871353 
	C140.764633,95.871346 140.359161,95.893120 139.894318,95.969185 
	C138.952728,96.362076 138.475983,96.678902 137.999237,96.995728 
	C137.181580,97.267693 136.363907,97.539665 135.009720,97.978928 
	C134.233826,98.390511 133.994461,98.634781 133.755096,98.879051 
	C115.794441,106.594208 101.983253,119.290596 90.809853,135.021790 
	C79.923882,150.348312 73.214584,167.359970 70.879929,186.072403 
	C70.716492,187.382324 69.919861,188.899490 68.933411,189.774033 
	C62.537884,195.443787 62.487495,199.491837 68.925278,205.208221 
	C69.383347,205.614960 69.684006,206.198975 70.643242,207.485947 
	C68.029694,207.642105 66.133423,207.847015 64.236458,207.853592 
	C53.579163,207.890518 42.921001,207.817673 32.264889,207.937790 
	C30.152763,207.961594 27.474083,207.997696 26.072758,209.206268 
	C23.885561,211.092636 21.373144,213.922348 21.237850,216.471237 
	C21.118494,218.719803 23.617687,221.756393 25.779196,223.295227 
	C27.958591,224.846786 30.241165,225.365784 30.343040,228.857956 
	C30.374601,229.939819 33.589733,231.803513 35.365059,231.824722 
	C53.513916,232.041718 71.666428,231.952408 89.817924,231.948792 
	C91.613014,231.948441 93.408096,231.948730 95.855515,231.948730 
	C95.701942,235.190292 95.574265,237.885300 95.427307,240.987274 
	C86.779503,240.987274 78.647316,240.987122 70.515129,240.987305 
	C58.358585,240.987549 46.201679,240.932861 34.045658,241.012604 
	C28.307423,241.050232 24.160612,238.799835 21.618263,233.540329 
	C20.933527,232.123764 19.815775,230.797241 18.605406,229.774094 
	C12.471431,224.589035 10.398875,218.191376 12.739554,211.129456 
	C14.987446,204.347519 22.008215,199.077576 29.427763,198.944809 
	C37.715965,198.796494 46.008862,198.910782 52.809921,198.910782 
	C56.052433,193.224060 58.745304,188.616638 61.305126,183.936447 
	C62.006439,182.654190 62.507923,181.189331 62.765152,179.748291 
	C68.193336,149.339172 82.995163,124.448486 107.267303,104.454971 
	C108.931992,103.108299 110.086952,102.117073 111.241913,101.125839 
	C111.241913,101.125847 111.673813,101.003616 112.059097,100.840454 
	C112.745117,100.533638 112.903854,100.295334 112.920593,99.962387 
	C112.920593,99.962387 112.979958,99.999664 113.235931,99.939522 
	C113.690437,99.606537 113.888969,99.333694 114.087509,99.060852 
	C114.087502,99.060852 114.001587,99.014458 114.366379,99.014641 
	C116.163445,98.018967 117.595718,97.023109 119.027992,96.027245 
	C119.027992,96.027245 119.000893,95.999290 119.285538,95.972351 
	C119.804367,95.671120 120.038551,95.396828 120.272736,95.122528 
	C120.272743,95.122536 120.671158,95.058372 121.084778,94.943405 
	C121.701736,94.579567 121.905067,94.330696 122.108406,94.081818 
	C122.108406,94.081818 122.000061,94.039291 122.337936,94.072441 
	C123.126579,93.767822 123.577354,93.430054 124.028130,93.092285 
	C124.572655,92.896561 125.117188,92.700836 126.142532,92.265892 
	C127.080452,91.672646 127.537552,91.318619 127.994644,90.964584 
	C128.550629,90.808899 129.106628,90.653221 130.184082,90.267479 
	C131.925522,89.422768 133.145538,88.808121 134.365555,88.193481 
	C134.365555,88.193489 134.720551,88.153915 135.150421,88.057953 
	C136.057404,87.649414 136.534500,87.336845 137.011612,87.024277 
	C138.126526,86.731766 139.241455,86.439247 141.016830,86.010193 
	C143.194626,85.291229 144.711960,84.708801 146.229294,84.126366 
	C146.229294,84.126366 146.644577,84.113243 147.190750,84.064194 
	C149.046463,83.537048 150.355988,83.058960 151.533508,82.629066 
	C151.212967,79.750854 150.945557,77.349663 150.678146,74.948463 
	C150.814301,73.581001 150.950470,72.213547 151.325989,70.194084 
	C152.407562,67.384727 153.249756,65.227371 154.091949,63.070015 
	C154.091949,63.070015 154.018524,62.991798 154.342758,62.904518 
	C155.543686,61.595768 156.420395,60.374294 157.297089,59.152824 
	C158.439087,58.300243 159.581070,57.447662 161.201294,56.290306 
	C162.591522,55.400166 163.503510,54.814800 164.415497,54.229431 
	C164.415497,54.229427 164.753464,54.209785 165.193985,54.117317 
	C166.151596,53.715767 166.668671,53.406677 167.185745,53.097588 
	C167.594193,53.053745 168.002625,53.009907 169.162354,52.964546 
	C173.272903,52.921364 176.632156,52.879704 179.991409,52.838043 
	C179.991409,52.838043 180.423416,53.028160 180.832855,53.295761 
	C181.827682,53.692749 182.413055,53.822132 182.998428,53.951511 
	C183.508072,54.255917 184.017715,54.560326 184.893265,55.091805 
	C185.259171,55.318878 185.587677,55.526459 185.587677,55.526459 
	C185.587677,55.526459 185.959000,55.412033 185.959000,55.412033 
	C187.366699,56.544788 188.774414,57.677544 190.578766,59.211586 
	C191.275787,59.801880 191.576187,59.990879 191.876572,60.179878 
	C191.876572,60.179882 191.898666,60.044167 191.955917,60.434303 
	C193.753799,65.209404 195.494446,69.594368 197.235092,73.979324 
	C197.195999,74.741066 197.156891,75.502800 197.070953,77.016479 
	C196.898254,79.375488 196.772415,80.982559 196.607895,83.083427 
	C200.103271,83.985535 203.571487,84.880638 207.039703,85.775742 
	C207.362213,85.923363 207.684738,86.070976 208.529388,86.486725 
	C211.048950,87.435699 213.046371,88.116547 215.043777,88.797401 
	C215.043777,88.797401 215.444290,89.009811 215.837189,89.291641 
	C216.810410,89.731560 217.390701,89.889648 217.971008,90.047737 
	C217.971008,90.047737 217.999390,89.999802 218.155396,90.301697 
	C219.537247,91.076164 220.763107,91.548729 221.988953,92.021301 
	C222.459534,92.333382 222.930115,92.645470 223.869476,93.252228 
	C225.808289,94.400078 227.278305,95.253265 228.748337,96.106453 
	C228.694855,96.388184 228.540070,96.593628 227.758484,96.804794 
	C226.495789,97.015709 225.758560,97.144600 225.021347,97.273491 
	C224.579529,97.274017 224.137726,97.274544 222.980804,97.301880 
	C218.887283,97.493362 215.508881,97.658035 212.130463,97.822708 
	C212.130463,97.822708 211.995926,97.865486 211.863007,97.580170 
	C210.191269,96.811440 208.652451,96.328018 207.113632,95.844604 
	C207.113632,95.844604 207.008820,95.864410 206.846466,95.587845 
	C204.842148,94.804741 203.000198,94.298203 201.158249,93.791672 
	C201.158249,93.791672 201.074982,93.788864 200.865753,93.532349 
	C197.437119,92.588051 194.217712,91.900261 190.998322,91.212479 
	C189.509262,90.613792 188.020218,90.015106 186.219238,88.950508 
	C185.640213,88.275246 185.373123,88.065895 185.106018,87.856537 
	C185.106018,87.856537 185.061050,87.950317 185.067520,87.565308 
	C185.426331,85.807808 185.778671,84.435318 186.131012,83.062828 
	C186.424545,82.576462 186.718063,82.090096 187.328766,81.026978 
	C188.774002,75.021210 189.042191,69.803535 184.063904,65.875267 
	C182.924240,64.943047 181.784576,64.010834 180.079178,62.765945 
	C174.729706,60.345982 170.239929,60.669327 166.122742,64.072929 
	C166.122742,64.072929 166.048248,64.037735 165.787994,64.098801 
	C165.331802,64.427452 165.135834,64.695045 164.939865,64.962639 
	C164.939865,64.962639 164.994690,65.000320 164.716431,65.025452 
	C164.266251,65.351295 164.094299,65.652016 163.922348,65.952728 
	C163.922348,65.952728 163.998550,65.993233 163.639221,66.098839 
	C159.569702,70.680229 158.477951,75.564095 160.972900,81.006950 
	C161.136185,81.570984 161.299469,82.135017 161.765381,83.119003 
	C162.346527,83.737724 162.625076,83.936485 162.903610,84.135254 
	C162.903610,84.135254 162.929108,84.015129 162.908264,84.343719 
	C163.186737,85.132851 163.486023,85.593399 163.785324,86.053940 
	C163.785324,86.053940 163.688843,86.332893 163.497940,86.619614 
	C163.181488,87.258827 163.055954,87.611320 162.930405,87.963806 
	C162.930405,87.963806 162.999313,87.989449 162.731018,88.048019 
	C162.337250,88.413391 162.211746,88.720200 162.086243,89.027023 
	C161.244110,89.627945 160.401947,90.228867 158.863083,90.908791 
	C152.365799,92.615646 146.565216,94.243500 140.764633,95.871353 
z"/>
<path fill="#64625F" opacity="1.000000" stroke="none" 
	d="
M246.945618,191.706757 
	C239.214584,191.398132 235.879791,189.167938 235.450653,181.582092 
	C234.785477,169.824142 234.536621,157.955933 235.380722,146.225800 
	C236.102173,136.199890 244.977188,133.669601 253.752884,140.916519 
	C253.752884,136.338654 253.752884,132.188293 253.752884,127.592377 
	C258.479370,127.592377 262.649994,127.592377 267.411865,127.592377 
	C267.411865,147.188324 267.411865,166.600052 266.945221,186.532440 
	C264.910400,187.178574 263.342255,187.304092 261.551453,187.347092 
	C260.977173,187.516083 260.625519,187.767563 259.862732,188.015015 
	C258.803711,187.573120 258.155823,187.135254 257.580750,186.594086 
	C257.653503,186.490799 257.359802,186.120789 257.327118,185.648514 
	C257.195831,180.700394 257.097229,176.224548 256.939270,171.603806 
	C256.741760,171.276199 256.559174,171.200546 255.961288,171.151367 
	C255.092468,170.980896 254.594589,170.891006 254.088074,170.351181 
	C254.060883,163.753387 254.228226,157.595459 253.896011,151.464584 
	C253.810532,149.886978 252.152420,148.394562 251.216751,146.863022 
	C250.119812,148.403229 248.163773,149.896500 248.076614,151.491867 
	C247.723663,157.951935 247.945679,164.443405 247.725845,171.251358 
	C247.555328,174.151428 247.734055,176.727509 247.646423,179.294510 
	C247.505096,183.435074 247.188293,187.569656 246.945618,191.706757 
z"/>
<path fill="#626261" opacity="1.000000" stroke="none" 
	d="
M200.694351,186.154037 
	C200.550919,186.028442 200.407486,185.902832 200.127045,185.539307 
	C199.990005,185.301376 200.034302,185.335205 200.034302,185.335205 
	C199.245438,182.320618 197.903122,179.329193 197.775925,176.286942 
	C197.449753,168.485748 197.512833,160.658417 197.698502,152.848160 
	C197.943832,142.528229 203.922928,136.772186 213.988953,136.815659 
	C224.021454,136.858994 229.927567,142.657394 230.160721,153.018250 
	C230.332748,160.662720 230.362732,168.320343 230.097244,175.959641 
	C229.996231,178.866379 228.893173,181.738281 227.725616,185.077118 
	C225.480820,186.251068 223.757187,186.973999 221.931808,187.781204 
	C221.830063,187.865479 221.674332,188.078979 221.576202,188.140991 
	C221.478088,188.202988 221.461868,188.617004 221.359283,188.970673 
	C221.148666,189.803223 221.040634,190.282120 220.533386,190.850540 
	C216.920029,191.137650 213.705887,191.335251 210.543762,191.421021 
	C210.595749,191.309189 210.705231,191.088165 210.958740,190.934692 
	C210.780212,189.615768 210.348206,188.450302 209.689163,187.247299 
	C209.462128,187.209763 209.022507,187.345871 208.979752,187.254395 
	C208.936996,187.162933 208.881546,186.968750 208.601608,186.693573 
	C205.779236,186.330276 203.236786,186.242157 200.694351,186.154037 
M210.869019,172.394714 
	C210.876450,173.891403 210.490967,175.537399 210.988846,176.847748 
	C211.639389,178.559845 212.988861,180.006393 214.037613,181.567184 
	C215.011627,180.071869 216.779633,178.601730 216.827942,177.077087 
	C217.096436,168.604263 217.110489,160.112152 216.796829,151.642014 
	C216.737656,150.043915 214.805557,148.515182 213.737671,146.954437 
	C212.785248,148.624191 211.098221,150.256577 211.011063,151.970367 
	C210.681961,158.439758 210.872742,164.935623 210.869019,172.394714 
z"/>
<path fill="#656362" opacity="1.000000" stroke="none" 
	d="
M160.190750,170.752945 
	C160.199402,164.931442 160.060272,159.105164 160.248886,153.289490 
	C160.592682,142.688904 166.760651,136.581039 176.746872,136.694168 
	C186.895218,136.809158 192.849213,142.890900 192.975143,153.475876 
	C193.068146,161.291962 193.103561,169.113815 192.909470,176.926758 
	C192.736084,183.906326 189.727219,189.054901 181.883713,191.028931 
	C178.030197,189.680664 174.973694,187.986801 171.698761,187.184662 
	C169.278824,186.591934 166.574234,187.161240 163.996475,187.212830 
	C163.957962,184.275375 163.912994,181.337982 163.884109,178.400436 
	C163.872711,177.241028 164.316223,175.837250 163.814072,174.974716 
	C162.896439,173.398529 161.428925,172.142502 160.190750,170.752945 
M175.585342,147.126312 
	C174.952652,148.719040 173.808212,150.300598 173.773163,151.906372 
	C173.592560,160.182312 173.541687,168.469864 173.831085,176.739883 
	C173.889297,178.403366 175.616547,180.008453 176.574265,181.640472 
	C177.656738,180.043274 179.614410,178.478363 179.674744,176.843445 
	C179.985962,168.409439 179.980530,159.950943 179.653198,151.517761 
	C179.592468,149.952972 177.551483,148.465057 175.585342,147.126312 
z"/>
<path fill="#646464" opacity="1.000000" stroke="none" 
	d="
M131.097900,142.005676 
	C131.097931,136.898712 131.097931,132.290604 131.097931,127.414963 
	C139.899628,127.414963 148.117371,127.414963 156.628647,127.414963 
	C156.628647,131.391251 156.628647,135.148590 156.628647,139.664719 
	C152.645645,139.664719 148.619797,139.664719 144.754913,139.664719 
	C143.101837,149.159729 143.101837,149.159729 155.706116,150.264725 
	C155.706116,153.918854 155.706116,157.629929 155.706116,161.989594 
	C152.226547,161.989594 148.517166,161.989594 144.311829,161.989594 
	C144.311829,171.839706 144.311829,181.068787 144.311829,190.736694 
	C139.791611,190.736694 135.765472,190.736694 131.097870,190.736694 
	C131.097870,174.649124 131.097870,158.576828 131.097900,142.005676 
z"/>
<path fill="#F69D15" opacity="1.000000" stroke="none" 
	d="
M159.747284,170.841797 
	C161.428925,172.142502 162.896439,173.398529 163.814072,174.974716 
	C164.316223,175.837250 163.872711,177.241028 163.884109,178.400436 
	C163.912994,181.337982 163.957962,184.275375 163.996475,187.212830 
	C166.574234,187.161240 169.278824,186.591934 171.698761,187.184662 
	C174.973694,187.986801 178.030197,189.680664 181.511688,191.090393 
	C182.576187,193.288971 183.309418,195.389114 184.119476,198.208466 
	C184.255859,199.424454 184.315430,199.921234 184.276611,200.549896 
	C184.086060,201.057571 184.201355,201.314621 184.660416,201.985382 
	C184.914963,202.864700 185.033218,203.211533 185.151474,203.558365 
	C184.890701,210.044708 184.629929,216.531036 184.260223,223.752869 
	C184.201630,224.673950 184.251984,224.859558 184.302338,225.045151 
	C184.307236,226.095062 184.312119,227.144974 184.101379,228.811005 
	C183.617615,229.953171 183.349487,230.479202 183.081360,231.005249 
	C180.642960,231.005249 178.204544,231.005249 174.985947,231.005249 
	C174.985947,221.983109 174.985947,213.295776 174.976959,203.750549 
	C174.576889,201.468811 174.185822,200.044983 173.801392,198.293396 
	C169.780029,193.795624 166.996277,193.989014 164.236389,198.921936 
	C164.086456,200.709106 164.115631,202.192505 164.144806,203.675903 
	C164.144806,212.608566 164.144806,221.541229 164.144806,231.152145 
	C161.624405,231.152145 159.847061,231.030258 158.092728,231.179214 
	C155.061310,231.436630 154.025848,230.209244 154.085205,227.155838 
	C154.230591,219.675018 154.069656,212.188232 154.013245,203.847214 
	C153.932220,201.405716 153.869919,199.820847 153.807617,198.235992 
	C153.908096,191.020844 154.294205,183.794037 154.000183,176.594986 
	C153.828384,172.388443 154.859177,170.327179 159.747284,170.841797 
z"/>
<path fill="#F89C10" opacity="1.000000" stroke="none" 
	d="
M261.774078,187.429596 
	C263.342255,187.304092 264.910400,187.178574 266.953796,186.996445 
	C270.120026,188.824707 272.811066,190.709595 275.795135,193.176300 
	C279.275726,204.519211 279.003998,215.280365 276.088806,226.041565 
	C275.180939,226.861618 274.273041,227.681671 272.843140,228.750397 
	C271.214233,229.668442 270.107330,230.337784 269.000397,231.007141 
	C268.578430,231.064026 268.156464,231.120926 266.996033,231.172333 
	C264.789124,231.272049 263.320679,231.377258 261.852264,231.482483 
	C261.446655,231.352890 261.041077,231.223282 260.173645,230.772430 
	C258.131714,230.713654 256.551575,230.976135 254.971466,231.238632 
	C253.602936,231.208664 252.234421,231.178696 250.203552,231.069031 
	C249.355576,231.006836 249.169937,231.024323 248.984299,231.041794 
	C248.701904,223.659088 248.419510,216.276398 248.343674,208.355865 
	C248.591599,207.713196 248.697769,207.567734 248.662247,207.511032 
	C248.553192,207.336945 248.389847,207.196854 248.247589,207.043549 
	C248.117447,206.079117 247.987289,205.114670 247.946198,203.366852 
	C248.105591,202.283340 248.175934,201.983231 248.487640,201.396286 
	C248.800705,192.740952 248.716064,184.365677 249.077362,176.009689 
	C249.148743,174.358902 250.936188,172.782333 252.296783,171.127106 
	C253.139801,170.988815 253.618240,170.894958 254.096695,170.801102 
	C254.594589,170.891006 255.092468,170.980896 255.990860,171.312378 
	C256.552887,171.745422 256.755280,171.810349 256.998596,171.748703 
	C257.097229,176.224548 257.195831,180.700394 257.266479,185.756012 
	C257.238556,186.335785 257.507965,186.697388 257.507965,186.697388 
	C258.155823,187.135254 258.803711,187.573120 259.940247,188.223373 
	C260.877350,188.100372 261.325714,187.764984 261.774078,187.429596 
M267.846069,198.024673 
	C264.185303,193.600586 260.436340,193.898407 257.912140,199.253784 
	C258.022675,200.622696 258.133240,201.991608 257.958862,204.212982 
	C257.903107,208.531128 257.708740,212.853348 257.835876,217.166107 
	C257.936005,220.562851 259.645813,222.912903 263.321289,223.000504 
	C267.069794,223.089828 268.798157,220.673370 268.914612,217.324570 
	C269.075684,212.691452 268.800842,208.043167 268.893585,202.567566 
	C268.527863,201.281464 268.162140,199.995361 267.846069,198.024673 
z"/>
<path fill="#F89D13" opacity="1.000000" stroke="none" 
	d="
M220.932617,190.761017 
	C221.040634,190.282120 221.148666,189.803223 221.471130,188.934875 
	C221.685577,188.545441 221.674332,188.078979 221.674332,188.078979 
	C221.674332,188.078979 221.830063,187.865479 222.316406,187.850281 
	C224.506470,187.594330 226.210175,187.353577 227.913895,187.112823 
	C228.378998,187.107391 228.844116,187.101959 229.677429,187.421371 
	C230.386765,188.129807 230.727890,188.513397 231.069000,188.896988 
	C231.117630,191.751724 231.166245,194.606445 231.198975,198.337097 
	C231.269928,200.635101 231.356750,202.057205 231.443588,203.479309 
	C231.369156,211.643921 231.294724,219.808548 231.139252,228.762741 
	C231.034454,230.031265 231.010712,230.510208 230.986969,230.989151 
	C230.986969,230.989151 231.000000,231.000000 230.549347,231.012543 
	C226.399521,231.018112 222.700348,231.011154 219.001175,231.004196 
	C218.279800,231.080002 217.558426,231.155823 216.072418,231.207092 
	C214.163849,231.245087 213.019928,231.307602 211.876007,231.370117 
	C210.947342,231.172607 210.018661,230.975113 208.594635,230.440918 
	C207.396408,229.740814 206.693527,229.377426 205.990662,229.014038 
	C205.154327,228.139389 204.317993,227.264740 203.259140,225.878052 
	C202.569061,224.732681 202.101486,224.099335 201.633911,223.465988 
	C201.390854,217.633041 201.147781,211.800079 200.953217,205.238144 
	C200.925110,204.137665 200.848495,203.766159 200.844147,202.999695 
	C200.876022,201.089050 200.835632,199.573349 200.795258,198.057663 
	C200.873764,194.759781 200.952286,191.461899 201.446960,187.673309 
	C202.371567,187.196655 202.880005,187.210678 203.543030,187.430237 
	C204.645569,187.491699 205.593536,187.347641 206.932739,187.164886 
	C207.843170,187.073700 208.362366,187.021225 208.881546,186.968750 
	C208.881546,186.968750 208.936996,187.162933 208.982819,187.521484 
	C209.308807,188.452591 209.588989,189.025146 210.016235,190.005081 
	C210.343948,190.637680 210.524582,190.862930 210.705231,191.088165 
	C210.705231,191.088165 210.595749,191.309189 210.418732,191.856674 
	C210.166595,192.994171 210.091461,193.584198 209.772568,194.314499 
	C209.691727,195.245010 209.854645,196.035248 210.104309,197.173691 
	C210.283463,197.742584 210.375870,197.963257 210.325134,198.552002 
	C210.104446,199.443253 210.026917,199.966400 209.681839,200.630493 
	C209.643097,202.149689 209.871887,203.527954 210.100555,205.281738 
	C210.074844,206.157059 210.049286,206.656891 209.739883,207.406799 
	C209.664734,210.367615 209.873444,213.078354 210.130524,216.177017 
	C210.326447,217.376617 210.431412,218.198822 210.628799,218.998184 
	C211.523865,222.622757 214.111359,223.485947 217.446533,223.177963 
	C221.156326,222.835403 221.303848,220.170609 221.251099,217.396088 
	C221.163269,212.778381 221.034409,208.161453 221.007568,203.108673 
	C221.060303,201.221466 221.028275,199.769760 221.112885,197.857025 
	C221.130554,195.184311 221.031586,192.972672 220.932617,190.761017 
z"/>
<path fill="#EF9E20" opacity="1.000000" stroke="none" 
	d="
M112.999191,60.996548 
	C112.971825,60.831757 112.944450,60.666962 112.938324,59.903435 
	C112.530624,58.232071 112.101662,57.159439 111.685417,55.761406 
	C111.417931,54.612556 111.137726,53.789101 110.897293,52.624432 
	C110.674057,51.670910 110.411049,51.058605 110.226532,50.206387 
	C110.215378,49.645618 110.125732,49.324768 110.090256,48.632210 
	C110.160164,47.510235 110.175896,46.759968 110.191628,46.009705 
	C110.191628,46.009705 110.368034,45.793343 110.545273,45.455559 
	C110.765961,44.743900 110.809418,44.370026 110.852882,43.996155 
	C115.942940,36.054043 126.232338,35.077076 133.025284,42.570107 
	C132.531845,44.142124 131.959030,45.042480 131.386215,45.942833 
	C128.648438,41.118519 123.680710,39.449402 118.462151,41.600452 
	C114.269371,43.328686 112.554749,48.492649 114.411507,54.476440 
	C115.733192,58.735878 117.331825,62.909378 118.910858,67.842728 
	C119.369446,69.700142 119.724045,70.836052 120.040939,71.980278 
	C120.003235,71.988594 120.059204,71.935379 120.039558,72.218292 
	C120.258347,72.986816 120.496780,73.472420 120.838493,74.379471 
	C120.936905,76.530815 120.932045,78.260704 120.619286,79.994659 
	C119.900848,79.995560 119.490318,79.992386 119.023514,79.620270 
	C118.933983,78.257210 118.900711,77.263077 118.913887,75.903290 
	C118.625542,74.696983 118.290749,73.856331 117.980896,73.015320 
	C118.005836,73.014961 117.966690,73.046097 117.984161,72.705727 
	C117.675819,71.576286 117.349998,70.787209 116.882614,69.802490 
	C116.539276,69.335037 116.272453,69.165741 115.940590,69.098946 
	C115.940590,69.098946 115.993134,69.035652 115.958405,68.670181 
	C115.272072,66.555954 114.620461,64.807198 113.968857,63.058449 
	C113.932983,62.880398 113.897110,62.702343 113.801796,62.031296 
	C113.586555,61.231670 113.338829,61.051086 112.999191,60.996548 
z"/>
<path fill="#EFA02A" opacity="1.000000" stroke="none" 
	d="
M97.057991,40.869209 
	C96.859856,40.356373 96.661728,39.843536 96.221649,38.832047 
	C95.302505,37.247292 94.625313,36.161186 93.948120,35.075081 
	C93.948120,35.075085 94.004654,35.025826 93.982224,34.731415 
	C93.645325,33.955872 93.330856,33.474739 93.016388,32.993607 
	C92.732437,31.883787 92.448486,30.773964 92.126419,28.942635 
	C92.038834,27.144432 91.989349,26.067732 91.939873,24.991032 
	C92.049438,24.661182 92.159004,24.331333 92.481827,23.549559 
	C92.789551,22.729034 92.884026,22.360435 92.978500,21.991837 
	C92.978500,21.991837 93.003067,21.997828 93.220413,21.895073 
	C93.716850,21.572128 93.840401,21.284994 93.808395,20.930916 
	C93.808395,20.930916 93.934044,20.920845 94.136688,20.815594 
	C94.616455,20.544928 94.734024,20.302214 94.692055,19.982201 
	C100.065208,16.665228 105.573036,14.540660 112.085098,18.450443 
	C112.623268,18.940495 112.807884,18.990206 113.005806,18.990873 
	C113.005806,18.990873 113.000305,18.999924 112.970306,19.294838 
	C112.380272,20.035852 111.820229,20.481955 111.260185,20.928057 
	C105.570786,18.132902 101.995857,18.442848 98.253929,22.046738 
	C94.469322,25.691738 96.021133,29.599756 97.700272,33.500748 
	C98.158798,34.565990 98.713013,35.590042 99.513977,37.183010 
	C100.160378,38.169983 100.516121,38.606945 100.871857,39.043907 
	C100.962402,39.467514 101.052956,39.891121 101.171448,40.979851 
	C102.740211,44.262333 104.281029,46.879692 105.725052,49.784702 
	C105.423157,51.063377 105.218063,52.054398 104.730598,52.980331 
	C103.962578,52.616104 103.476921,52.316971 102.991264,52.017838 
	C102.991264,52.017838 103.000916,51.999531 102.956795,51.689770 
	C102.292122,50.581093 101.671562,49.782177 101.051010,48.983261 
	C100.982277,48.554195 100.913536,48.125126 100.698128,47.066513 
	C99.662849,45.022221 98.774246,43.607475 97.885643,42.192730 
	C97.885643,42.192730 97.930984,42.089134 97.868126,41.816193 
	C97.556175,41.318569 97.307083,41.093887 97.057991,40.869209 
z"/>
<path fill="#7E7C7A" opacity="1.000000" stroke="none" 
	d="
M153.358795,198.210724 
	C153.869919,199.820847 153.932220,201.405716 153.898285,203.375244 
	C145.541565,203.759903 137.281113,203.759903 128.886292,203.759903 
	C127.311317,199.672745 128.230209,198.051361 132.539032,198.179245 
	C139.323441,198.380615 146.119080,198.202774 153.358795,198.210724 
z"/>
<path fill="#69635B" opacity="1.000000" stroke="none" 
	d="
M231.872742,203.471130 
	C231.356750,202.057205 231.269928,200.635101 231.287064,198.808990 
	C236.281265,198.400269 241.171509,198.395569 246.676163,198.668381 
	C247.609161,199.858292 247.927719,200.770706 248.246277,201.683105 
	C248.175934,201.983231 248.105591,202.283340 247.859238,203.011948 
	C242.556107,203.447952 237.429016,203.455460 231.872742,203.471130 
z"/>
<path fill="#817B73" opacity="1.000000" stroke="none" 
	d="
M200.414246,198.051300 
	C200.835632,199.573349 200.876022,201.089050 200.482040,202.971588 
	C199.113968,203.473389 198.180267,203.608322 197.246567,203.743256 
	C196.949829,203.687744 196.653076,203.632233 195.929657,203.459900 
	C195.502975,203.343063 195.541565,203.422134 195.541565,203.422150 
	C192.384598,203.458893 189.227646,203.495651 185.611084,203.545380 
	C185.033218,203.211533 184.914963,202.864700 184.765778,201.867020 
	C184.800919,200.853317 184.680984,200.587265 184.375015,200.418030 
	C184.315430,199.921234 184.255859,199.424454 184.267029,198.561218 
	C189.569580,198.144836 194.801422,198.094879 200.414246,198.051300 
z"/>
<path fill="#FEF6D7" opacity="1.000000" stroke="none" 
	d="
M118.867439,76.268944 
	C118.900711,77.263077 118.933983,78.257210 118.920135,79.969223 
	C117.911674,82.795227 117.476204,84.576424 120.904823,83.955490 
	C122.005646,88.732605 116.800156,94.087769 110.602524,93.374405 
	C116.450905,87.571899 117.599159,80.748276 117.076828,73.177223 
	C117.575455,72.963356 117.966690,73.046097 117.966690,73.046097 
	C117.966690,73.046097 118.005836,73.014961 117.970413,73.363792 
	C118.245804,74.564728 118.556625,75.416840 118.867439,76.268944 
z"/>
<path fill="#F7E2B4" opacity="1.000000" stroke="none" 
	d="
M276.442871,225.979767 
	C279.003998,215.280365 279.275726,204.519211 276.068665,193.366257 
	C277.029114,194.338989 278.772888,195.655762 278.861847,197.076172 
	C279.346008,204.807327 279.612671,212.566742 279.501953,220.309982 
	C279.475067,222.191818 277.744293,224.049301 276.442871,225.979767 
z"/>
<path fill="#E7A73F" opacity="1.000000" stroke="none" 
	d="
M131.289169,46.349712 
	C131.959030,45.042480 132.531845,44.142124 133.176392,42.873871 
	C135.538666,47.203518 134.889587,51.053101 131.189301,53.087673 
	C128.862259,54.367184 125.849632,57.072746 125.278183,51.316849 
	C125.187271,50.401100 123.289337,49.664745 122.093864,48.742924 
	C124.874352,47.262810 129.986679,54.873230 131.289169,46.349712 
z"/>
<path fill="#E7AC57" opacity="1.000000" stroke="none" 
	d="
M111.758110,31.969334 
	C107.602547,33.469093 103.654892,31.399857 103.668327,27.430294 
	C103.673080,26.024754 104.683250,24.273602 105.791649,23.346247 
	C106.504097,22.750164 109.021347,22.945126 109.337738,23.533720 
	C109.946320,24.665899 109.566666,26.329288 109.943375,28.234150 
	C109.958496,29.719515 109.627129,30.743088 109.230141,31.969334 
	C109.817009,31.969334 110.787560,31.969334 111.758110,31.969334 
z"/>
<path fill="#756B5D" opacity="1.000000" stroke="none" 
	d="
M164.584991,203.694229 
	C164.115631,202.192505 164.086456,200.709106 164.641525,198.973572 
	C168.082108,198.688019 170.938416,198.654587 173.794739,198.621155 
	C174.185822,200.044983 174.576889,201.468811 174.884857,203.266693 
	C171.542892,203.664673 168.284027,203.688614 164.584991,203.694229 
z"/>
<path fill="#CCA56C" opacity="1.000000" stroke="none" 
	d="
M248.487640,201.396286 
	C247.927719,200.770706 247.609161,199.858292 247.140900,198.682343 
	C247.057495,196.424652 247.123810,194.430511 247.067871,192.071564 
	C247.188293,187.569656 247.505096,183.435074 247.646423,179.294510 
	C247.734055,176.727509 247.555328,174.151428 248.127975,171.290802 
	C249.817276,171.058640 250.874756,171.115082 251.932236,171.171539 
	C250.936188,172.782333 249.148743,174.358902 249.077362,176.009689 
	C248.716064,184.365677 248.800705,192.740952 248.487640,201.396286 
z"/>
<path fill="#FEF6D7" opacity="1.000000" stroke="none" 
	d="
M105.012970,53.045418 
	C105.218063,52.054398 105.423157,51.063377 105.780998,49.404911 
	C105.960602,48.484146 105.987457,48.230824 106.014313,47.977497 
	C106.762344,47.991158 107.510384,48.004822 108.745285,48.235107 
	C109.439125,48.724590 109.707100,48.908653 110.036087,49.003918 
	C110.125732,49.324768 110.215378,49.645618 110.200699,50.556831 
	C110.350090,51.753345 110.603806,52.359497 110.857521,52.965649 
	C111.137726,53.789101 111.417931,54.612556 111.510666,55.960381 
	C111.549065,57.313057 111.774933,58.141357 112.000809,58.969658 
	C111.271309,58.992939 110.541817,59.016220 109.408981,58.784565 
	C108.739525,58.039272 108.473396,57.548920 108.095657,56.749588 
	C107.330635,55.965878 106.677216,55.491146 105.779541,54.851593 
	C105.361168,54.139656 105.187073,53.592537 105.012970,53.045418 
z"/>
<path fill="#EBA33B" opacity="1.000000" stroke="none" 
	d="
M112.022675,31.714066 
	C110.787560,31.969334 109.817009,31.969334 109.230141,31.969334 
	C109.627129,30.743088 109.958496,29.719515 110.170319,28.420528 
	C113.955368,26.726929 112.900093,24.153711 111.426682,21.224974 
	C111.820229,20.481955 112.380272,20.035852 112.975281,19.291340 
	C117.491417,23.188280 117.226448,27.756739 112.022675,31.714066 
z"/>
<path fill="#E6AC57" opacity="1.000000" stroke="none" 
	d="
M106.023804,55.016411 
	C106.677216,55.491146 107.330635,55.965878 108.055374,57.180389 
	C108.147011,59.947304 108.167328,61.974434 108.187637,64.001564 
	C108.187645,64.001564 108.025841,64.449806 107.804405,64.802910 
	C107.361046,65.405190 107.306877,65.686646 107.420471,66.000374 
	C107.315254,66.438637 107.210037,66.876900 106.801453,67.811234 
	C105.656898,68.200157 104.815712,68.093002 103.974518,67.985855 
	C103.974518,67.985855 103.998924,68.001396 104.291367,67.772835 
	C104.755119,64.679131 104.926437,61.813984 105.097748,58.948841 
	C105.034088,58.213158 104.970428,57.477470 105.123466,56.300892 
	C105.568039,55.578800 105.795921,55.297604 106.023804,55.016411 
z"/>
<path fill="#FEF6D3" opacity="1.000000" stroke="none" 
	d="
M103.629715,68.045464 
	C104.815712,68.093002 105.656898,68.200157 106.778091,68.149178 
	C107.302307,72.588623 103.846184,73.403961 100.862442,74.702148 
	C100.451157,74.419685 100.039864,74.137222 99.628578,73.854759 
	C100.847351,71.938194 102.066132,70.021637 103.629715,68.045464 
z"/>
<path fill="#FEF6D7" opacity="1.000000" stroke="none" 
	d="
M184.042694,66.281891 
	C189.042191,69.803535 188.774002,75.021210 187.340820,80.731339 
	C186.697006,79.648491 186.310089,78.294357 186.029205,76.918587 
	C185.334106,73.513840 184.687546,70.099190 184.042694,66.281891 
z"/>
<path fill="#FEF6D7" opacity="1.000000" stroke="none" 
	d="
M161.266190,80.721176 
	C158.477951,75.564095 159.569702,70.680229 163.609879,66.067162 
	C163.146408,70.765053 162.352951,75.600227 161.266190,80.721176 
z"/>
<path fill="#FEF6D7" opacity="1.000000" stroke="none" 
	d="
M141.194672,95.924950 
	C146.565216,94.243500 152.365799,92.615646 158.580963,91.046295 
	C153.205261,92.729370 147.414993,94.353958 141.194672,95.924950 
z"/>
<path fill="#FEF6D7" opacity="1.000000" stroke="none" 
	d="
M197.474487,73.676651 
	C195.494446,69.594368 193.753799,65.209404 191.915924,60.490223 
	C197.107086,62.011150 198.446732,65.014816 197.474487,73.676651 
z"/>
<path fill="#FEF6D7" opacity="1.000000" stroke="none" 
	d="
M166.534607,64.066139 
	C170.239929,60.669327 174.729706,60.345982 179.755814,62.737518 
	C175.647598,63.367626 171.297028,63.713490 166.534607,64.066139 
z"/>
<path fill="#FEF6D7" opacity="1.000000" stroke="none" 
	d="
M206.961334,85.438133 
	C203.571487,84.880638 200.103271,83.985535 196.607895,83.083427 
	C196.772415,80.982559 196.898254,79.375488 197.131882,77.394150 
	C197.428131,83.324585 203.712982,82.353943 206.961334,85.438133 
z"/>
<path fill="#F7E2B4" opacity="1.000000" stroke="none" 
	d="
M219.265656,231.275009 
	C222.700348,231.011154 226.399521,231.018112 230.543854,231.005981 
	C229.237839,231.633774 227.501633,232.748444 225.731613,232.805008 
	C223.679962,232.870575 221.598587,232.006393 219.265656,231.275009 
z"/>
<path fill="#FEF6D7" opacity="1.000000" stroke="none" 
	d="
M212.156189,98.225403 
	C215.508881,97.658035 218.887283,97.493362 222.666443,97.412369 
	C219.777267,101.128181 216.073868,100.784622 212.156189,98.225403 
z"/>
<path fill="#FEF6D3" opacity="1.000000" stroke="none" 
	d="
M105.971428,47.627907 
	C105.987457,48.230824 105.960602,48.484146 105.877792,49.117256 
	C104.281029,46.879692 102.740211,44.262333 101.278130,41.287437 
	C102.880760,43.046036 104.404648,45.162178 105.971428,47.627907 
z"/>
<path fill="#FEF6D7" opacity="1.000000" stroke="none" 
	d="
M120.927185,79.990593 
	C120.932045,78.260704 120.936905,76.530815 120.888779,74.095871 
	C120.576920,72.905663 120.318062,72.420525 120.059204,71.935379 
	C120.059204,71.935379 120.003235,71.988594 120.063477,71.642212 
	C120.163399,70.848373 120.203087,70.400917 120.242783,69.953453 
	C122.845963,73.544571 123.656990,77.360794 121.384338,81.443924 
	C121.024033,80.905327 120.975609,80.447960 120.927185,79.990593 
z"/>
<path fill="#FEF6D7" opacity="1.000000" stroke="none" 
	d="
M150.366516,75.038277 
	C150.945557,77.349663 151.212967,79.750854 151.533508,82.629066 
	C150.355988,83.058960 149.046463,83.537048 147.369904,83.959000 
	C150.756409,81.929634 149.328491,78.154213 150.366516,75.038277 
z"/>
<path fill="#FEF6D7" opacity="1.000000" stroke="none" 
	d="
M179.730408,52.585037 
	C176.632156,52.879704 173.272903,52.921364 169.461212,52.886642 
	C172.367020,49.837280 175.916260,51.041904 179.730408,52.585037 
z"/>
<path fill="#FEF6D7" opacity="1.000000" stroke="none" 
	d="
M191.196289,91.507309 
	C194.217712,91.900261 197.437119,92.588051 200.901245,93.554115 
	C197.895401,93.155647 194.644836,92.478897 191.196289,91.507309 
z"/>
<path fill="#FEF6D3" opacity="1.000000" stroke="none" 
	d="
M104.793114,59.224075 
	C104.926437,61.813984 104.755119,64.679131 104.282951,67.761856 
	C104.150894,65.152733 104.319687,62.326023 104.793114,59.224075 
z"/>
<path fill="#FEF6D7" opacity="1.000000" stroke="none" 
	d="
M153.736786,63.088398 
	C153.249756,65.227371 152.407562,67.384727 151.320526,69.781090 
	C151.844330,67.715660 152.612976,65.411217 153.736786,63.088398 
z"/>
<path fill="#FEF6D7" opacity="1.000000" stroke="none" 
	d="
M229.034119,95.933075 
	C227.278305,95.253265 225.808289,94.400078 224.162018,93.276291 
	C225.763809,93.923698 227.541855,94.841698 229.034119,95.933075 
z"/>
<path fill="#FEF6D7" opacity="1.000000" stroke="none" 
	d="
M215.015030,88.404053 
	C213.046371,88.116547 211.048950,87.435699 208.796936,86.496971 
	C210.690308,86.829628 212.838303,87.420174 215.015030,88.404053 
z"/>
<path fill="#FEF6D7" opacity="1.000000" stroke="none" 
	d="
M201.170868,94.189034 
	C203.000198,94.298203 204.842148,94.804741 206.899170,95.594513 
	C205.137329,95.447304 203.160400,95.016853 201.170868,94.189034 
z"/>
<path fill="#F7E2B4" opacity="1.000000" stroke="none" 
	d="
M261.987488,231.785782 
	C263.320679,231.377258 264.789124,231.272049 266.690430,231.266571 
	C265.456482,231.607224 263.789612,231.848160 261.987488,231.785782 
z"/>
<path fill="#F7E2B4" opacity="1.000000" stroke="none" 
	d="
M255.231232,231.468796 
	C256.551575,230.976135 258.131714,230.713654 259.857758,230.722473 
	C258.499451,231.228836 256.995209,231.463898 255.231232,231.468796 
z"/>
<path fill="#EBA437" opacity="1.000000" stroke="none" 
	d="
M120.619278,79.994659 
	C120.975609,80.447960 121.024033,80.905327 121.133186,81.703247 
	C121.102554,82.465240 121.011177,82.886688 120.912315,83.631813 
	C117.476204,84.576424 117.911674,82.795227 118.976402,80.338158 
	C119.490318,79.992386 119.900848,79.995560 120.619278,79.994659 
z"/>
<path fill="#FEF6D7" opacity="1.000000" stroke="none" 
	d="
M113.963814,63.461357 
	C114.620461,64.807198 115.272072,66.555954 115.917572,68.675156 
	C115.260574,67.318489 114.609673,65.591377 113.963814,63.461357 
z"/>
<path fill="#FEF6D7" opacity="1.000000" stroke="none" 
	d="
M185.788406,83.077080 
	C185.778671,84.435318 185.426331,85.807808 185.115906,87.546234 
	C181.755386,86.096230 183.280640,84.574669 185.788406,83.077080 
z"/>
<path fill="#CCA56C" opacity="1.000000" stroke="none" 
	d="
M227.884094,186.802460 
	C226.210175,187.353577 224.506470,187.594330 222.418152,187.766022 
	C223.757187,186.973999 225.480820,186.251068 227.482681,185.399292 
	C227.792053,185.677658 227.823181,186.084885 227.884094,186.802460 
z"/>
<path fill="#FEF6D7" opacity="1.000000" stroke="none" 
	d="
M118.642395,96.005547 
	C117.595718,97.023109 116.163445,98.018967 114.398621,99.051323 
	C115.462975,98.053162 116.859886,97.018501 118.642395,96.005547 
z"/>
<path fill="#817B73" opacity="1.000000" stroke="none" 
	d="
M208.601608,186.693573 
	C208.362366,187.021225 207.843170,187.073700 206.628128,187.103058 
	C205.084335,187.128220 204.236389,187.176453 203.388458,187.224701 
	C202.880005,187.210678 202.371567,187.196655 201.482880,187.203796 
	C200.995560,187.061386 200.888474,186.897781 200.737854,186.444122 
	C203.236786,186.242157 205.779236,186.330276 208.601608,186.693573 
z"/>
<path fill="#F7E2B4" opacity="1.000000" stroke="none" 
	d="
M211.983521,231.667572 
	C213.019928,231.307602 214.163849,231.245087 215.723038,231.306030 
	C214.789215,231.608002 213.440125,231.786514 211.983521,231.667572 
z"/>
<path fill="#F7E2B4" opacity="1.000000" stroke="none" 
	d="
M269.196655,231.240417 
	C270.107330,230.337784 271.214233,229.668442 272.652832,228.989441 
	C271.787323,229.811081 270.590118,230.642380 269.196655,231.240417 
z"/>
<path fill="#FEF6D3" opacity="1.000000" stroke="none" 
	d="
M91.601318,25.052879 
	C91.989349,26.067732 92.038834,27.144432 92.006668,28.618723 
	C89.275848,28.127991 89.433464,26.763239 91.601318,25.052879 
z"/>
<path fill="#FEF6D3" opacity="1.000000" stroke="none" 
	d="
M97.900589,42.570724 
	C98.774246,43.607475 99.662849,45.022221 100.591751,46.758446 
	C99.726540,45.702858 98.821045,44.325790 97.900589,42.570724 
z"/>
<path fill="#FEF6D3" opacity="1.000000" stroke="none" 
	d="
M105.779533,54.851593 
	C105.795921,55.297604 105.568039,55.578800 105.067604,55.935799 
	C104.185829,54.923382 103.576614,53.835167 102.979324,52.382393 
	C103.476921,52.316971 103.962578,52.616104 104.730606,52.980331 
	C105.187073,53.592537 105.361168,54.139656 105.779533,54.851593 
z"/>
<path fill="#FEF6D7" opacity="1.000000" stroke="none" 
	d="
M110.849991,101.083374 
	C110.086952,102.117073 108.931992,103.108299 107.459877,104.188545 
	C108.247841,103.198677 109.352966,102.119789 110.849991,101.083374 
z"/>
<path fill="#FEF6D7" opacity="1.000000" stroke="none" 
	d="
M207.135040,96.233826 
	C208.652451,96.328018 210.191269,96.811440 211.933350,97.575745 
	C210.476547,97.445442 208.816498,97.034241 207.135040,96.233826 
z"/>
<path fill="#FEF6D7" opacity="1.000000" stroke="none" 
	d="
M156.916946,59.137901 
	C156.420395,60.374294 155.543686,61.595768 154.371201,62.949486 
	C154.895874,61.762146 155.716339,60.442566 156.916946,59.137901 
z"/>
<path fill="#FEF6D7" opacity="1.000000" stroke="none" 
	d="
M145.826263,84.074722 
	C144.711960,84.708801 143.194626,85.291229 141.323395,85.843033 
	C142.454071,85.215965 143.938644,84.619522 145.826263,84.074722 
z"/>
<path fill="#FEF6D3" opacity="1.000000" stroke="none" 
	d="
M108.435745,63.737747 
	C108.167328,61.974434 108.147011,59.947304 108.166977,57.489372 
	C108.473396,57.548920 108.739525,58.039272 109.045822,58.821388 
	C108.951942,60.566746 108.817902,62.020336 108.435745,63.737747 
z"/>
<path fill="#FEF6D3" opacity="1.000000" stroke="none" 
	d="
M100.806862,49.167393 
	C101.671562,49.782177 102.292122,50.581093 102.947357,51.693840 
	C102.175591,51.122292 101.369148,50.236908 100.806862,49.167393 
z"/>
<path fill="#FEF6D7" opacity="1.000000" stroke="none" 
	d="
M133.961731,88.131821 
	C133.145538,88.808121 131.925522,89.422768 130.358658,90.032600 
	C131.193832,89.375252 132.375885,88.722702 133.961731,88.131821 
z"/>
<path fill="#FEF6D7" opacity="1.000000" stroke="none" 
	d="
M221.934967,91.658096 
	C220.763107,91.548729 219.537247,91.076164 218.136871,90.322601 
	C219.268570,90.459366 220.574783,90.877121 221.934967,91.658096 
z"/>
<path fill="#FEF6D3" opacity="1.000000" stroke="none" 
	d="
M93.943871,35.446236 
	C94.625313,36.161186 95.302505,37.247292 96.001709,38.662064 
	C95.329025,37.932953 94.634323,36.875168 93.943871,35.446236 
z"/>
<path fill="#FEF6D7" opacity="1.000000" stroke="none" 
	d="
M164.027222,54.160336 
	C163.503510,54.814800 162.591522,55.400166 161.354202,56.022793 
	C161.898911,55.403782 162.768936,54.747509 164.027222,54.160336 
z"/>
<path fill="#FEF6D3" opacity="1.000000" stroke="none" 
	d="
M112.079460,59.181610 
	C111.774933,58.141357 111.549065,57.313057 111.497948,56.285782 
	C112.101662,57.159439 112.530624,58.232071 112.878296,59.660156 
	C112.517883,59.876232 112.304916,59.668884 112.079460,59.181610 
z"/>
<path fill="#F7E2B4" opacity="1.000000" stroke="none" 
	d="
M197.483749,203.856445 
	C198.180267,203.608322 199.113968,203.473389 200.409775,203.366562 
	C200.848495,203.766159 200.925110,204.137665 200.896271,204.776138 
	C199.767517,204.685287 198.744232,204.327454 197.483749,203.856445 
z"/>
<path fill="#FEF6D7" opacity="1.000000" stroke="none" 
	d="
M123.861938,92.846130 
	C123.577354,93.430054 123.126579,93.767822 122.381577,94.110947 
	C122.623474,93.610863 123.159615,93.105423 123.861938,92.846130 
z"/>
<path fill="#CCA56C" opacity="1.000000" stroke="none" 
	d="
M231.240875,188.726456 
	C230.727890,188.513397 230.386765,188.129807 230.021912,187.476501 
	C230.469711,187.656494 230.941238,188.106201 231.240875,188.726456 
z"/>
<path fill="#FEF6D3" opacity="1.000000" stroke="none" 
	d="
M101.128876,38.868950 
	C100.516121,38.606945 100.160378,38.169983 99.741341,37.448959 
	C100.247330,37.674599 100.816620,38.184296 101.128876,38.868950 
z"/>
<path fill="#FEF6D3" opacity="1.000000" stroke="none" 
	d="
M92.785309,33.158207 
	C93.330856,33.474739 93.645325,33.955872 93.945320,34.737984 
	C93.471970,34.466915 93.013092,33.894863 92.785309,33.158207 
z"/>
<path fill="#FEF6D7" opacity="1.000000" stroke="none" 
	d="
M136.851868,86.790359 
	C136.534500,87.336845 136.057404,87.649414 135.281219,87.936317 
	C135.552124,87.459244 136.122131,87.007843 136.851868,86.790359 
z"/>
<path fill="#F7E2B4" opacity="1.000000" stroke="none" 
	d="
M201.476685,223.805283 
	C202.101486,224.099335 202.569061,224.732681 203.037094,225.671112 
	C202.464859,225.365677 201.892151,224.755127 201.476685,223.805283 
z"/>
<path fill="#F7E2B4" opacity="1.000000" stroke="none" 
	d="
M206.035950,229.364899 
	C206.693527,229.377426 207.396408,229.740814 208.244141,230.376205 
	C207.619751,230.337387 206.850479,230.026581 206.035950,229.364899 
z"/>
<path fill="#F7E2B4" opacity="1.000000" stroke="none" 
	d="
M231.269501,230.975769 
	C231.010712,230.510208 231.034454,230.031265 231.199478,229.219910 
	C231.411179,229.579117 231.481613,230.270752 231.269501,230.975769 
z"/>
<path fill="#FEF6D7" opacity="1.000000" stroke="none" 
	d="
M164.051208,85.901703 
	C163.486023,85.593399 163.186737,85.132851 162.871277,84.392723 
	C163.342438,84.658585 163.829773,85.204033 164.051208,85.901703 
z"/>
<path fill="#FEF6D7" opacity="1.000000" stroke="none" 
	d="
M138.161591,97.222343 
	C138.475983,96.678902 138.952728,96.362076 139.725113,96.081413 
	C139.455154,96.561371 138.889557,97.005165 138.161591,97.222343 
z"/>
<path fill="#FEF6D7" opacity="1.000000" stroke="none" 
	d="
M127.820976,90.737793 
	C127.537552,91.318619 127.080452,91.672646 126.320923,92.034119 
	C126.561417,91.531372 127.104362,91.021187 127.820976,90.737793 
z"/>
<path fill="#EBA437" opacity="1.000000" stroke="none" 
	d="
M120.134232,69.663300 
	C120.203087,70.400917 120.163399,70.848373 120.101181,71.633896 
	C119.724045,70.836052 119.369446,69.700142 119.058670,68.178680 
	C119.410225,68.319801 119.717949,68.846474 120.134232,69.663300 
z"/>
<path fill="#FEF6D7" opacity="1.000000" stroke="none" 
	d="
M225.236252,97.478722 
	C225.758560,97.144600 226.495789,97.015709 227.606720,96.934128 
	C227.137329,97.215607 226.294250,97.449783 225.236252,97.478722 
z"/>
<path fill="#CCA56C" opacity="1.000000" stroke="none" 
	d="
M183.362396,231.031799 
	C183.349487,230.479202 183.617615,229.953171 184.078674,229.204224 
	C184.062225,229.673660 183.852844,230.366013 183.362396,231.031799 
z"/>
<path fill="#EBA437" opacity="1.000000" stroke="none" 
	d="
M117.984161,72.705727 
	C117.966690,73.046097 117.575455,72.963356 117.376144,72.948265 
	C117.097534,72.499641 117.018242,72.066116 116.920486,71.067581 
	C116.942734,70.334442 116.983452,70.166290 117.024178,69.998138 
	C117.349998,70.787209 117.675819,71.576286 117.984161,72.705727 
z"/>
<path fill="#FEF6D3" opacity="1.000000" stroke="none" 
	d="
M110.090256,48.632210 
	C109.707100,48.908653 109.439125,48.724590 109.119385,48.232109 
	C109.210236,47.435074 109.413864,46.857651 109.904556,46.144966 
	C110.175896,46.759968 110.160164,47.510235 110.090256,48.632210 
z"/>
<path fill="#FEF6D7" opacity="1.000000" stroke="none" 
	d="
M116.882614,69.802490 
	C116.983452,70.166290 116.942734,70.334442 116.825523,70.750641 
	C116.484596,70.546387 116.220177,70.094086 115.948174,69.370369 
	C116.272453,69.165741 116.539276,69.335037 116.882614,69.802490 
z"/>
<path fill="#FEF6D7" opacity="1.000000" stroke="none" 
	d="
M217.813965,89.776192 
	C217.390701,89.889648 216.810410,89.731560 216.062729,89.314362 
	C216.482544,89.205055 217.069717,89.354851 217.813965,89.776192 
z"/>
<path fill="#FEF6D7" opacity="1.000000" stroke="none" 
	d="
M182.824463,53.696136 
	C182.413055,53.822132 181.827682,53.692749 181.068512,53.308571 
	C181.479980,53.182774 182.065231,53.311768 182.824463,53.696136 
z"/>
<path fill="#FEF6D7" opacity="1.000000" stroke="none" 
	d="
M166.865875,53.064606 
	C166.668671,53.406677 166.151596,53.715767 165.321533,54.006042 
	C165.521042,53.668694 166.033508,53.350159 166.865875,53.064606 
z"/>
<path fill="#EBA33B" opacity="1.000000" stroke="none" 
	d="
M112.930084,18.807964 
	C112.807884,18.990206 112.623268,18.940495 112.360474,18.743345 
	C112.329575,18.427301 112.390167,18.209654 112.450760,17.992004 
	C112.585297,18.203020 112.719833,18.414038 112.930084,18.807964 
z"/>
<path fill="#CCA56C" opacity="1.000000" stroke="none" 
	d="
M248.152374,207.271484 
	C248.389847,207.196854 248.553192,207.336945 248.662247,207.511032 
	C248.697769,207.567734 248.591599,207.713196 248.396561,207.887634 
	C248.242889,207.957214 248.057144,207.499420 248.152374,207.271484 
z"/>
<path fill="#FEF6D7" opacity="1.000000" stroke="none" 
	d="
M134.010345,98.865967 
	C133.994461,98.634781 134.233826,98.390511 134.737167,98.165039 
	C134.755951,98.406860 134.510773,98.629875 134.010345,98.865967 
z"/>
<path fill="#FEF6D3" opacity="1.000000" stroke="none" 
	d="
M93.606079,21.047005 
	C93.840401,21.284994 93.716850,21.572128 93.212875,21.884384 
	C93.013725,21.647627 93.152321,21.376509 93.606079,21.047005 
z"/>
<path fill="#FEF6D7" opacity="1.000000" stroke="none" 
	d="
M162.851379,83.876190 
	C162.625076,83.936485 162.346527,83.737724 162.018738,83.275581 
	C162.246048,83.213852 162.522598,83.415489 162.851379,83.876190 
z"/>
<path fill="#FEF6D3" opacity="1.000000" stroke="none" 
	d="
M94.518005,20.068573 
	C94.734024,20.302214 94.616455,20.544928 94.130188,20.752903 
	C93.989952,20.534355 94.130920,20.320848 94.518005,20.068573 
z"/>
<path fill="#F7E2B4" opacity="1.000000" stroke="none" 
	d="
M249.046326,231.228729 
	C249.169937,231.024323 249.355576,231.006836 249.794281,231.108673 
	C249.734329,231.290543 249.421356,231.353119 249.046326,231.228729 
z"/>
<path fill="#FEF6D7" opacity="1.000000" stroke="none" 
	d="
M191.807404,59.905289 
	C191.576187,59.990879 191.275787,59.801880 190.881500,59.353962 
	C191.104462,59.273598 191.421356,59.452152 191.807404,59.905289 
z"/>
<path fill="#FEF6D7" opacity="1.000000" stroke="none" 
	d="
M165.180206,64.908440 
	C165.135834,64.695045 165.331802,64.427452 165.786835,64.139977 
	C165.938293,64.450714 165.729843,64.695435 165.180206,64.908440 
z"/>
<path fill="#FEF6D7" opacity="1.000000" stroke="none" 
	d="
M107.575241,65.858444 
	C107.306877,65.686646 107.361046,65.405190 107.775406,65.039413 
	C107.987122,65.216949 107.907845,65.481514 107.575241,65.858444 
z"/>
<path fill="#CCA56C" opacity="1.000000" stroke="none" 
	d="
M184.443390,224.942963 
	C184.251984,224.859558 184.201630,224.673950 184.242218,224.216904 
	C184.447769,224.132233 184.585556,224.309708 184.666153,224.510162 
	C184.700500,224.595612 184.615295,224.729111 184.443390,224.942963 
z"/>
<path fill="#FEF6D7" opacity="1.000000" stroke="none" 
	d="
M119.994492,95.158798 
	C120.038551,95.396828 119.804367,95.671120 119.295517,95.988625 
	C119.252655,95.752914 119.484451,95.473991 119.994492,95.158798 
z"/>
<path fill="#FEF6D7" opacity="1.000000" stroke="none" 
	d="
M121.871315,94.110390 
	C121.905067,94.330696 121.701736,94.579567 121.244774,94.820465 
	C121.106857,94.493797 121.321220,94.269295 121.871315,94.110390 
z"/>
<path fill="#F89D13" opacity="1.000000" stroke="none" 
	d="
M195.523117,203.451324 
	C195.541565,203.422134 195.502975,203.343063 195.483429,203.382812 
	C195.463867,203.422577 195.504669,203.480499 195.523117,203.451324 
z"/>
<path fill="#FEF6D3" opacity="1.000000" stroke="none" 
	d="
M92.731018,22.162041 
	C92.884026,22.360435 92.789551,22.729034 92.473801,23.288029 
	C92.329521,23.096365 92.406525,22.714306 92.731018,22.162041 
z"/>
<path fill="#FEF6D7" opacity="1.000000" stroke="none" 
	d="
M113.841385,99.115005 
	C113.888969,99.333694 113.690437,99.606537 113.231285,99.904778 
	C113.178871,99.676498 113.387070,99.422821 113.841385,99.115005 
z"/>
<path fill="#FEF6D7" opacity="1.000000" stroke="none" 
	d="
M112.721191,100.018494 
	C112.903854,100.295334 112.745117,100.533638 112.220680,100.684692 
	C112.088051,100.414993 112.262985,100.209160 112.721191,100.018494 
z"/>
<path fill="#FEF6D3" opacity="1.000000" stroke="none" 
	d="
M97.098236,41.115463 
	C97.307083,41.093887 97.556175,41.318569 97.813217,41.802719 
	C97.502274,41.917706 97.274712,41.684216 97.098236,41.115463 
z"/>
<path fill="#FEF6D7" opacity="1.000000" stroke="none" 
	d="
M164.172729,65.876907 
	C164.094299,65.652016 164.266251,65.351295 164.702240,64.995377 
	C164.785248,65.227150 164.604187,65.514122 164.172729,65.876907 
z"/>
<path fill="#FEF6D7" opacity="1.000000" stroke="none" 
	d="
M163.190826,87.827164 
	C163.055954,87.611320 163.181488,87.258827 163.552368,86.756790 
	C163.682220,86.968338 163.566742,87.329430 163.190826,87.827164 
z"/>
<path fill="#FEF6D3" opacity="1.000000" stroke="none" 
	d="
M110.637680,44.192757 
	C110.809418,44.370026 110.765961,44.743900 110.514656,45.319378 
	C110.345367,45.143776 110.383926,44.766571 110.637680,44.192757 
z"/>
<path fill="#FEF6D7" opacity="1.000000" stroke="none" 
	d="
M185.849884,55.287216 
	C185.959000,55.412033 185.587677,55.526459 185.587677,55.526459 
	C185.587677,55.526459 185.259171,55.318878 185.188690,55.136822 
	C185.349777,54.951981 185.557297,55.021191 185.849884,55.287216 
z"/>
<path fill="#FEF6D7" opacity="1.000000" stroke="none" 
	d="
M113.045113,61.205368 
	C113.338829,61.051086 113.586555,61.231670 113.713280,61.773628 
	C113.412025,61.884956 113.214302,61.686703 113.045113,61.205368 
z"/>
<path fill="#FEF6D7" opacity="1.000000" stroke="none" 
	d="
M162.308365,88.914871 
	C162.211746,88.720200 162.337250,88.413391 162.708862,88.018692 
	C162.948166,88.287033 162.806671,88.577675 162.308365,88.914871 
z"/>
<path fill="#FEF6D7" opacity="1.000000" stroke="none" 
	d="
M185.144852,88.112579 
	C185.373123,88.065895 185.640213,88.275246 185.932831,88.748413 
	C185.700134,88.797691 185.441910,88.583153 185.144852,88.112579 
z"/>
<path fill="#817B73" opacity="1.000000" stroke="none" 
	d="
M199.976593,185.266479 
	C200.034302,185.335205 199.990005,185.301376 199.999237,185.283478 
	C200.008453,185.265564 199.918869,185.197754 199.976593,185.266479 
z"/>
<path fill="#F9F9F7" opacity="1.000000" stroke="none" 
	d="
M252.296783,171.127106 
	C250.874756,171.115082 249.817276,171.058640 248.357666,170.962738 
	C247.945679,164.443405 247.723663,157.951935 248.076614,151.491867 
	C248.163773,149.896500 250.119812,148.403229 251.216751,146.863022 
	C252.152420,148.394562 253.810532,149.886978 253.896011,151.464584 
	C254.228226,157.595459 254.060883,163.753387 254.088074,170.351181 
	C253.618240,170.894958 253.139801,170.988815 252.296783,171.127106 
z"/>
<path fill="#CCA56C" opacity="1.000000" stroke="none" 
	d="
M261.551453,187.347107 
	C261.325714,187.764984 260.877350,188.100372 260.351410,188.227402 
	C260.625519,187.767563 260.977173,187.516083 261.551453,187.347107 
z"/>
<path fill="#CCA56C" opacity="1.000000" stroke="none" 
	d="
M257.580750,186.594086 
	C257.507965,186.697388 257.238556,186.335785 257.299194,186.228287 
	C257.359802,186.120789 257.653503,186.490799 257.580750,186.594086 
z"/>
<path fill="#CCA56C" opacity="1.000000" stroke="none" 
	d="
M256.939270,171.603806 
	C256.755280,171.810349 256.552887,171.745422 256.361786,171.392944 
	C256.559174,171.200546 256.741760,171.276199 256.939270,171.603806 
z"/>
<path fill="#F8F8F8" opacity="1.000000" stroke="none" 
	d="
M210.868958,171.908142 
	C210.872742,164.935623 210.681961,158.439758 211.011063,151.970367 
	C211.098221,150.256577 212.785248,148.624191 213.737671,146.954437 
	C214.805557,148.515182 216.737656,150.043915 216.796829,151.642014 
	C217.110489,160.112152 217.096436,168.604263 216.827942,177.077087 
	C216.779633,178.601730 215.011627,180.071869 214.037628,181.567184 
	C212.988861,180.006393 211.639389,178.559845 210.988846,176.847748 
	C210.490967,175.537399 210.876450,173.891403 210.868958,171.908142 
z"/>
<path fill="#F9F6EB" opacity="1.000000" stroke="none" 
	d="
M210.468277,198.183929 
	C210.375870,197.963257 210.283463,197.742584 210.190521,196.849533 
	C210.132095,195.509506 210.074219,194.841858 210.016357,194.174210 
	C210.091461,193.584198 210.166595,192.994171 210.366730,191.968506 
	C213.705887,191.335251 216.920029,191.137650 220.533386,190.850540 
	C221.031586,192.972672 221.130554,195.184311 220.661804,197.836853 
	C216.885498,198.246460 213.676880,198.215195 210.468277,198.183929 
z"/>
<path fill="#817B73" opacity="1.000000" stroke="none" 
	d="
M210.958740,190.934692 
	C210.524582,190.862930 210.343948,190.637680 210.070557,189.725632 
	C209.957275,188.454163 209.936737,187.869492 209.916199,187.284836 
	C210.348206,188.450302 210.780212,189.615768 210.958740,190.934692 
z"/>
<path fill="#CCA56C" opacity="1.000000" stroke="none" 
	d="
M209.689148,187.247299 
	C209.936737,187.869492 209.957275,188.454163 209.923492,189.318268 
	C209.588989,189.025146 209.308807,188.452591 209.025574,187.612946 
	C209.022507,187.345871 209.462128,187.209763 209.689148,187.247299 
z"/>
<path fill="#CCA56C" opacity="1.000000" stroke="none" 
	d="
M221.576202,188.140991 
	C221.674332,188.078979 221.685577,188.545441 221.573730,188.581223 
	C221.461868,188.617004 221.478088,188.202988 221.576202,188.140991 
z"/>
<path fill="#F4F4F4" opacity="1.000000" stroke="none" 
	d="
M176.004898,147.033981 
	C177.551483,148.465057 179.592468,149.952972 179.653198,151.517761 
	C179.980530,159.950943 179.985962,168.409439 179.674744,176.843445 
	C179.614410,178.478363 177.656738,180.043274 176.574265,181.640472 
	C175.616547,180.008453 173.889297,178.403366 173.831085,176.739883 
	C173.541687,168.469864 173.592560,160.182312 173.773163,151.906372 
	C173.808212,150.300598 174.952652,148.719040 176.004898,147.033981 
z"/>
<path fill="#E8D9B6" opacity="1.000000" stroke="none" 
	d="
M173.801392,198.293396 
	C170.938416,198.654587 168.082108,198.688019 164.820648,198.669800 
	C166.996277,193.989014 169.780029,193.795624 173.801392,198.293396 
z"/>
<path fill="#CCA56C" opacity="1.000000" stroke="none" 
	d="
M184.276611,200.549896 
	C184.680984,200.587265 184.800919,200.853317 184.629486,201.334534 
	C184.201355,201.314621 184.086060,201.057571 184.276611,200.549896 
z"/>
<path fill="#FAF6EB" opacity="1.000000" stroke="none" 
	d="
M268.712677,203.401367 
	C268.800842,208.043167 269.075684,212.691452 268.914612,217.324570 
	C268.798157,220.673370 267.069794,223.089828 263.321289,223.000504 
	C259.645813,222.912903 257.936005,220.562851 257.835876,217.166107 
	C257.708740,212.853348 257.903107,208.531128 258.541199,203.800491 
	C262.319885,203.392456 265.516296,203.396912 268.712677,203.401367 
z"/>
<path fill="#706558" opacity="1.000000" stroke="none" 
	d="
M268.803131,202.984467 
	C265.516296,203.396912 262.319885,203.392456 258.683655,203.374268 
	C258.133240,201.991608 258.022675,200.622696 258.601074,199.021378 
	C262.125488,198.762390 264.960938,198.735825 267.796387,198.709259 
	C268.162140,199.995361 268.527863,201.281464 268.803131,202.984467 
z"/>
<path fill="#E9D6B1" opacity="1.000000" stroke="none" 
	d="
M267.821228,198.366974 
	C264.960938,198.735825 262.125488,198.762390 258.886017,198.778778 
	C260.436340,193.898407 264.185303,193.600586 267.821228,198.366974 
z"/>
<path fill="#FEFAED" opacity="1.000000" stroke="none" 
	d="
M210.023743,207.156708 
	C210.049286,206.656891 210.074844,206.157059 210.318604,205.162857 
	C210.830734,204.264236 211.124649,203.859985 211.842255,203.457703 
	C215.151566,203.487823 218.037201,203.516006 220.922821,203.544205 
	C221.034409,208.161453 221.163269,212.778381 221.251099,217.396088 
	C221.303848,220.170609 221.156326,222.835403 217.446533,223.177963 
	C214.111359,223.485947 211.523865,222.622757 210.628799,218.998184 
	C210.431412,218.198822 210.326447,217.376617 210.212097,215.758636 
	C210.171432,212.353790 210.097580,209.755249 210.023743,207.156708 
z"/>
<path fill="#817B71" opacity="1.000000" stroke="none" 
	d="
M221.007568,203.108673 
	C218.037201,203.516006 215.151566,203.487823 211.562012,203.231567 
	C210.555191,202.165527 210.252274,201.327545 209.949371,200.489563 
	C210.026917,199.966400 210.104446,199.443253 210.325134,198.552002 
	C213.676880,198.215195 216.885498,198.246460 220.545166,198.297897 
	C221.028275,199.769760 221.060303,201.221466 221.007568,203.108673 
z"/>
<path fill="#CCA56C" opacity="1.000000" stroke="none" 
	d="
M209.739899,207.406799 
	C210.097580,209.755249 210.171432,212.353790 210.163712,215.370712 
	C209.873444,213.078354 209.664734,210.367615 209.739899,207.406799 
z"/>
<path fill="#CCA56C" opacity="1.000000" stroke="none" 
	d="
M209.681839,200.630493 
	C210.252274,201.327545 210.555191,202.165527 211.138336,203.229630 
	C211.124649,203.859985 210.830734,204.264236 210.318756,204.787354 
	C209.871887,203.527954 209.643097,202.149689 209.681839,200.630493 
z"/>
<path fill="#CCA56C" opacity="1.000000" stroke="none" 
	d="
M203.543030,187.430237 
	C204.236389,187.176453 205.084335,187.128220 206.236877,187.141785 
	C205.593536,187.347641 204.645569,187.491699 203.543030,187.430237 
z"/>
<path fill="#CCA56C" opacity="1.000000" stroke="none" 
	d="
M209.772583,194.314499 
	C210.074219,194.841858 210.132095,195.509506 210.103760,196.501312 
	C209.854645,196.035248 209.691727,195.245010 209.772583,194.314499 
z"/>
<path fill="#EBA437" opacity="1.000000" stroke="none" 
	d="
M118.913887,75.903290 
	C118.556625,75.416840 118.245804,74.564728 117.945465,73.364151 
	C118.290749,73.856331 118.625542,74.696983 118.913887,75.903290 
z"/>
<path fill="#FEF6D3" opacity="1.000000" stroke="none" 
	d="
M110.897293,52.624432 
	C110.603806,52.359497 110.350090,51.753345 110.122208,50.796745 
	C110.411049,51.058605 110.674057,51.670910 110.897293,52.624432 
z"/>
<path fill="#EBA437" opacity="1.000000" stroke="none" 
	d="
M120.039558,72.218292 
	C120.318062,72.420525 120.576920,72.905663 120.785507,73.674416 
	C120.496780,73.472420 120.258347,72.986816 120.039558,72.218292 
z"/>
</svg>